<svg xmlns="http://www.w3.org/2000/svg" viewBox="0 0 64 64" role="img" aria-label="DocTracker">
  <defs>
    <linearGradient id="tile" x1="0" y1="0" x2="64" y2="64" gradientUnits="userSpaceOnUse">
      <stop offset="0" stop-color="#161d2e"/>
      <stop offset="1" stop-color="#0c1019"/>
    </linearGradient>
    <linearGradient id="page" x1="0" y1="0" x2="0" y2="1">
      <stop offset="0" stop-color="#ffffff"/>
      <stop offset="1" stop-color="#e7ebf5"/>
    </linearGradient>
    <linearGradient id="fold" x1="0" y1="0" x2="1" y2="1">
      <stop offset="0" stop-color="#c7cfe4"/>
      <stop offset="1" stop-color="#aab4d1"/>
    </linearGradient>
  </defs>

  <rect width="64" height="64" rx="15" fill="url(#tile)"/>
  <rect x="1.2" y="1.2" width="61.6" height="61.6" rx="13.8" fill="none" stroke="#5c7cfa" stroke-opacity=".35" stroke-width="1.4"/>

  <!-- Document -->
  <path d="M20 14h16l8 8v28a2.4 2.4 0 0 1-2.4 2.4H20A2.4 2.4 0 0 1 17.6 50V16.4A2.4 2.4 0 0 1 20 14z" fill="url(#page)"/>
  <path d="M36 14l8 8h-6.2A1.8 1.8 0 0 1 36 20.2z" fill="url(#fold)"/>

  <!-- Text lines -->
  <rect x="23" y="27" width="18" height="2.6" rx="1.3" fill="#5c7cfa" opacity=".85"/>
  <rect x="23" y="33" width="18" height="2.6" rx="1.3" fill="#9aa7c7" opacity=".8"/>
  <rect x="23" y="39" width="11" height="2.6" rx="1.3" fill="#9aa7c7" opacity=".6"/>

  <!-- Tracker checkmark badge -->
  <circle cx="46" cy="46" r="11.5" fill="#0f1420"/>
  <circle cx="46" cy="46" r="10" fill="#1f9d6f"/>
  <path d="M41.2 46.3l3.2 3.2 6.4-6.8" fill="none" stroke="#ffffff" stroke-width="2.4" stroke-linecap="round" stroke-linejoin="round"/>
</svg>
